<svg xmlns="http://www.w3.org/2000/svg" xmlns:xlink="http://www.w3.org/1999/xlink" width="500" zoomAndPan="magnify" viewBox="0 0 375 374.999991" height="500" preserveAspectRatio="xMidYMid meet" version="1.0"><path stroke-linecap="butt" transform="matrix(0, -0.75, 0.75, 0, 97.244134, 78.810801)" fill="none" stroke-linejoin="miter" d="M -0.00226503 0.497405 L 24.17482 0.497405 " stroke="#ffffff" stroke-width="1" stroke-opacity="1" stroke-miterlimit="4"/><path stroke-linecap="butt" transform="matrix(-0.0042858, -0.749988, 0.749988, -0.0042858, 67.031162, 78.812793)" fill="none" stroke-linejoin="miter" d="M -0.0024669 0.500111 L 24.175027 0.497645 " stroke="#ffffff" stroke-width="1" stroke-opacity="1" stroke-miterlimit="4"/><path stroke-linecap="butt" transform="matrix(0, -0.75, 0.75, 0, 82.319742, 87.52095)" fill="none" stroke-linejoin="miter" d="M 0.001892 0.50076 L 47.293562 0.50076 " stroke="#ffffff" stroke-width="1" stroke-opacity="1" stroke-miterlimit="4"/><path stroke-linecap="butt" transform="matrix(-0.64763, 0.378253, -0.378253, -0.64763, 98.026976, 78.728433)" fill="none" stroke-linejoin="miter" d="M 0.00329859 0.499407 L 24.117507 0.499665 " stroke="#ffffff" stroke-width="1" stroke-opacity="1" stroke-miterlimit="4"/><path stroke-linecap="butt" transform="matrix(0.646362, 0.380416, -0.380416, 0.646362, 67.389067, 78.082113)" fill="none" stroke-linejoin="miter" d="M 0.00105913 0.500855 L 23.980472 0.499234 " stroke="#ffffff" stroke-width="1" stroke-opacity="1" stroke-miterlimit="4"/><path stroke-linecap="butt" transform="matrix(0.647847, 0.377882, -0.377882, 0.647847, 82.677047, 51.734037)" fill="none" stroke-linejoin="miter" d="M 0.000627537 0.500612 L 23.703188 0.501018 " stroke="#ffffff" stroke-width="1" stroke-opacity="1" stroke-miterlimit="4"/><path stroke-linecap="butt" transform="matrix(-0.650297, 0.37365, -0.37365, -0.650297, 97.600618, 62.065119)" fill="none" stroke-linejoin="miter" d="M -0.00143342 0.501774 L 45.688708 0.498515 " stroke="#ffffff" stroke-width="1" stroke-opacity="1" stroke-miterlimit="4"/><path stroke-linecap="butt" transform="matrix(0, -0.75, 0.75, 0, 74.675244, 82.748687)" fill="none" stroke-linejoin="miter" d="M -0.00175018 0.500717 L 23.383668 0.500717 " stroke="#ffffff" stroke-width="1" stroke-opacity="1" stroke-miterlimit="4"/><path stroke-linecap="butt" transform="matrix(0.647656, 0.378208, -0.378208, 0.647656, 67.89227, 60.358443)" fill="none" stroke-linejoin="miter" d="M 0.000841325 0.50155 L 46.193523 0.498946 " stroke="#ffffff" stroke-width="1" stroke-opacity="1" stroke-miterlimit="4"/><path stroke-linecap="butt" transform="matrix(0.648315, 0.377077, -0.377077, 0.648315, 75.241296, 56.012699)" fill="none" stroke-linejoin="miter" d="M 0.00160895 0.497647 L 24.160064 0.503328 " stroke="#ffffff" stroke-width="1" stroke-opacity="1" stroke-miterlimit="4"/><path stroke-linecap="butt" transform="matrix(-0.651361, 0.371791, -0.371791, -0.651361, 83.06835, 52.383167)" fill="none" stroke-linejoin="miter" d="M 0.000317742 0.498481 L 24.088258 0.502398 " stroke="#ffffff" stroke-width="1" stroke-opacity="1" stroke-miterlimit="4"/><path stroke-linecap="butt" transform="matrix(-0.649163, 0.375615, -0.375615, -0.649163, 98.002908, 70.749612)" fill="none" stroke-linejoin="miter" d="M -0.00100537 0.498262 L 23.609857 0.500447 " stroke="#ffffff" stroke-width="1" stroke-opacity="1" stroke-miterlimit="4"/></svg>